<mxfile host="app.diagrams.net" modified="2021-06-03T09:26:15.145Z" agent="5.0 (Windows NT 10.0; Win64; x64) AppleWebKit/537.36 (KHTML, like Gecko) Chrome/90.0.4430.212 Safari/537.36" etag="a8TY5km-PmmIkELBsGxo" version="14.7.2" type="github">
  <diagram id="mWplZK4BHEZrfkZpoma6" name="Page-1">
    <mxGraphModel dx="1483" dy="783" grid="1" gridSize="10" guides="1" tooltips="1" connect="1" arrows="1" fold="1" page="1" pageScale="1" pageWidth="827" pageHeight="1169" math="0" shadow="0">
      <root>
        <mxCell id="0" />
        <mxCell id="1" parent="0" />
        <mxCell id="PJY2FfgqVHya2o1p99eN-1" value="Начало" style="rounded=1;whiteSpace=wrap;html=1;" vertex="1" parent="1">
          <mxGeometry x="354" y="20" width="126" height="30" as="geometry" />
        </mxCell>
        <mxCell id="PJY2FfgqVHya2o1p99eN-3" value="Считываем название станции из формы" style="rounded=0;whiteSpace=wrap;html=1;" vertex="1" parent="1">
          <mxGeometry x="309" y="80" width="216" height="40" as="geometry" />
        </mxCell>
        <mxCell id="PJY2FfgqVHya2o1p99eN-5" value="Такая станция есть в базе данных?" style="rhombus;whiteSpace=wrap;html=1;" vertex="1" parent="1">
          <mxGeometry x="302" y="150" width="230" height="80" as="geometry" />
        </mxCell>
        <mxCell id="PJY2FfgqVHya2o1p99eN-6" value="Выход" style="rounded=1;whiteSpace=wrap;html=1;" vertex="1" parent="1">
          <mxGeometry x="350" y="590" width="126" height="30" as="geometry" />
        </mxCell>
        <mxCell id="PJY2FfgqVHya2o1p99eN-7" value="" style="endArrow=none;html=1;entryX=0;entryY=0.5;entryDx=0;entryDy=0;" edge="1" parent="1" target="PJY2FfgqVHya2o1p99eN-5">
          <mxGeometry width="50" height="50" relative="1" as="geometry">
            <mxPoint x="200" y="190" as="sourcePoint" />
            <mxPoint x="440" y="250" as="targetPoint" />
          </mxGeometry>
        </mxCell>
        <mxCell id="PJY2FfgqVHya2o1p99eN-8" value="Вывод шаблона с текстом ошибки" style="shape=parallelogram;perimeter=parallelogramPerimeter;whiteSpace=wrap;html=1;fixedSize=1;" vertex="1" parent="1">
          <mxGeometry x="120" y="250" width="160" height="40" as="geometry" />
        </mxCell>
        <mxCell id="PJY2FfgqVHya2o1p99eN-9" value="" style="endArrow=classic;html=1;entryX=0.5;entryY=0;entryDx=0;entryDy=0;" edge="1" parent="1" target="PJY2FfgqVHya2o1p99eN-8">
          <mxGeometry width="50" height="50" relative="1" as="geometry">
            <mxPoint x="200" y="190" as="sourcePoint" />
            <mxPoint x="200" y="240" as="targetPoint" />
            <Array as="points" />
          </mxGeometry>
        </mxCell>
        <mxCell id="PJY2FfgqVHya2o1p99eN-10" value="" style="endArrow=classic;html=1;exitX=0.5;exitY=1;exitDx=0;exitDy=0;" edge="1" parent="1" source="PJY2FfgqVHya2o1p99eN-1">
          <mxGeometry width="50" height="50" relative="1" as="geometry">
            <mxPoint x="390" y="300" as="sourcePoint" />
            <mxPoint x="417" y="80" as="targetPoint" />
          </mxGeometry>
        </mxCell>
        <mxCell id="PJY2FfgqVHya2o1p99eN-11" value="" style="endArrow=classic;html=1;exitX=0.5;exitY=1;exitDx=0;exitDy=0;entryX=0.5;entryY=0;entryDx=0;entryDy=0;" edge="1" parent="1" source="PJY2FfgqVHya2o1p99eN-3" target="PJY2FfgqVHya2o1p99eN-5">
          <mxGeometry width="50" height="50" relative="1" as="geometry">
            <mxPoint x="390" y="300" as="sourcePoint" />
            <mxPoint x="440" y="250" as="targetPoint" />
          </mxGeometry>
        </mxCell>
        <mxCell id="PJY2FfgqVHya2o1p99eN-12" value="Нет" style="text;html=1;strokeColor=none;fillColor=none;align=center;verticalAlign=middle;whiteSpace=wrap;rounded=0;" vertex="1" parent="1">
          <mxGeometry x="269" y="170" width="40" height="20" as="geometry" />
        </mxCell>
        <mxCell id="PJY2FfgqVHya2o1p99eN-13" value="Да" style="text;html=1;strokeColor=none;fillColor=none;align=center;verticalAlign=middle;whiteSpace=wrap;rounded=0;" vertex="1" parent="1">
          <mxGeometry x="532" y="170" width="40" height="20" as="geometry" />
        </mxCell>
        <mxCell id="PJY2FfgqVHya2o1p99eN-14" value="" style="endArrow=none;html=1;entryX=0.5;entryY=1;entryDx=0;entryDy=0;" edge="1" parent="1" target="PJY2FfgqVHya2o1p99eN-8">
          <mxGeometry width="50" height="50" relative="1" as="geometry">
            <mxPoint x="200" y="560" as="sourcePoint" />
            <mxPoint x="210" y="330" as="targetPoint" />
          </mxGeometry>
        </mxCell>
        <mxCell id="PJY2FfgqVHya2o1p99eN-16" value="" style="endArrow=none;html=1;exitX=0;exitY=1;exitDx=0;exitDy=0;" edge="1" parent="1" source="PJY2FfgqVHya2o1p99eN-13">
          <mxGeometry width="50" height="50" relative="1" as="geometry">
            <mxPoint x="390" y="190" as="sourcePoint" />
            <mxPoint x="600" y="190" as="targetPoint" />
          </mxGeometry>
        </mxCell>
        <mxCell id="PJY2FfgqVHya2o1p99eN-23" style="edgeStyle=orthogonalEdgeStyle;rounded=0;orthogonalLoop=1;jettySize=auto;html=1;exitX=0.5;exitY=1;exitDx=0;exitDy=0;entryX=0.5;entryY=0;entryDx=0;entryDy=0;" edge="1" parent="1" source="PJY2FfgqVHya2o1p99eN-18" target="PJY2FfgqVHya2o1p99eN-22">
          <mxGeometry relative="1" as="geometry" />
        </mxCell>
        <mxCell id="PJY2FfgqVHya2o1p99eN-18" value="Выполняем запрос к базе данных, получаем объекты из каждой таблицы для конкретной станции" style="rounded=0;whiteSpace=wrap;html=1;" vertex="1" parent="1">
          <mxGeometry x="510" y="290" width="180" height="80" as="geometry" />
        </mxCell>
        <mxCell id="PJY2FfgqVHya2o1p99eN-19" value="Получаем id станции по ее названию" style="shape=process;whiteSpace=wrap;html=1;backgroundOutline=1;" vertex="1" parent="1">
          <mxGeometry x="510" y="230" width="180" height="40" as="geometry" />
        </mxCell>
        <mxCell id="PJY2FfgqVHya2o1p99eN-20" value="" style="endArrow=classic;html=1;entryX=0.5;entryY=0;entryDx=0;entryDy=0;" edge="1" parent="1" target="PJY2FfgqVHya2o1p99eN-19">
          <mxGeometry width="50" height="50" relative="1" as="geometry">
            <mxPoint x="600" y="190" as="sourcePoint" />
            <mxPoint x="610" y="220" as="targetPoint" />
          </mxGeometry>
        </mxCell>
        <mxCell id="PJY2FfgqVHya2o1p99eN-21" value="" style="endArrow=classic;html=1;exitX=0.5;exitY=1;exitDx=0;exitDy=0;entryX=0.5;entryY=0;entryDx=0;entryDy=0;" edge="1" parent="1" source="PJY2FfgqVHya2o1p99eN-19" target="PJY2FfgqVHya2o1p99eN-18">
          <mxGeometry width="50" height="50" relative="1" as="geometry">
            <mxPoint x="390" y="270" as="sourcePoint" />
            <mxPoint x="440" y="220" as="targetPoint" />
          </mxGeometry>
        </mxCell>
        <mxCell id="PJY2FfgqVHya2o1p99eN-25" style="edgeStyle=orthogonalEdgeStyle;rounded=0;orthogonalLoop=1;jettySize=auto;html=1;exitX=0.5;exitY=1;exitDx=0;exitDy=0;entryX=0.5;entryY=0;entryDx=0;entryDy=0;" edge="1" parent="1" source="PJY2FfgqVHya2o1p99eN-22" target="PJY2FfgqVHya2o1p99eN-24">
          <mxGeometry relative="1" as="geometry" />
        </mxCell>
        <mxCell id="PJY2FfgqVHya2o1p99eN-22" value="Выполняем функцию render(), заполняем шаблон данными, создаем HttpResponse для отправки браузеру" style="rounded=0;whiteSpace=wrap;html=1;" vertex="1" parent="1">
          <mxGeometry x="510" y="390" width="180" height="80" as="geometry" />
        </mxCell>
        <mxCell id="PJY2FfgqVHya2o1p99eN-24" value="Вывод заполненного шаблона&amp;nbsp;" style="shape=parallelogram;perimeter=parallelogramPerimeter;whiteSpace=wrap;html=1;fixedSize=1;" vertex="1" parent="1">
          <mxGeometry x="500" y="495" width="200" height="35" as="geometry" />
        </mxCell>
        <mxCell id="PJY2FfgqVHya2o1p99eN-27" value="" style="endArrow=none;html=1;exitX=0.5;exitY=1;exitDx=0;exitDy=0;" edge="1" parent="1" source="PJY2FfgqVHya2o1p99eN-24">
          <mxGeometry width="50" height="50" relative="1" as="geometry">
            <mxPoint x="530" y="530" as="sourcePoint" />
            <mxPoint x="600" y="560" as="targetPoint" />
          </mxGeometry>
        </mxCell>
        <mxCell id="PJY2FfgqVHya2o1p99eN-34" style="edgeStyle=orthogonalEdgeStyle;rounded=0;orthogonalLoop=1;jettySize=auto;html=1;exitX=0.5;exitY=1;exitDx=0;exitDy=0;" edge="1" parent="1" source="PJY2FfgqVHya2o1p99eN-6" target="PJY2FfgqVHya2o1p99eN-6">
          <mxGeometry relative="1" as="geometry" />
        </mxCell>
        <mxCell id="PJY2FfgqVHya2o1p99eN-37" value="" style="endArrow=classic;html=1;" edge="1" parent="1">
          <mxGeometry width="50" height="50" relative="1" as="geometry">
            <mxPoint x="410" y="560" as="sourcePoint" />
            <mxPoint x="410" y="590" as="targetPoint" />
          </mxGeometry>
        </mxCell>
        <mxCell id="PJY2FfgqVHya2o1p99eN-38" value="" style="endArrow=classic;html=1;" edge="1" parent="1">
          <mxGeometry width="50" height="50" relative="1" as="geometry">
            <mxPoint x="200" y="560" as="sourcePoint" />
            <mxPoint x="410" y="560" as="targetPoint" />
          </mxGeometry>
        </mxCell>
        <mxCell id="PJY2FfgqVHya2o1p99eN-39" value="" style="endArrow=classic;html=1;" edge="1" parent="1">
          <mxGeometry width="50" height="50" relative="1" as="geometry">
            <mxPoint x="600" y="560" as="sourcePoint" />
            <mxPoint x="410" y="560" as="targetPoint" />
          </mxGeometry>
        </mxCell>
      </root>
    </mxGraphModel>
  </diagram>
</mxfile>
